<?xml version="1.0" standalone="no"?>
<!DOCTYPE svg PUBLIC "-//W3C//DTD SVG 20010904//EN"
 "http://www.w3.org/TR/2001/REC-SVG-20010904/DTD/svg10.dtd">
<svg version="1.0" xmlns="http://www.w3.org/2000/svg"
 width="180.000000pt" height="180.000000pt" viewBox="0 0 180.000000 180.000000"
 preserveAspectRatio="xMidYMid meet">

<g transform="translate(0.000000,180.000000) scale(0.100000,-0.100000)"
fill="#000000" stroke="none">
<path d="M796 1769 c-85 -11 -233 -60 -304 -101 -90 -51 -196 -142 -257 -220
-256 -327 -255 -775 3 -1100 33 -42 85 -95 116 -119 31 -24 56 -47 56 -51 0
-5 -88 -8 -195 -8 l-196 0 3 -72 3 -73 500 0 c482 0 503 1 587 22 311 79 540
299 635 610 23 78 26 105 27 238 1 128 -3 162 -22 230 -31 107 -89 227 -146
302 -47 62 -171 183 -187 183 -5 0 -9 5 -9 10 0 6 68 10 185 10 l186 0 -3 73
-3 72 -455 1 c-250 1 -486 -2 -524 -7z m190 -440 c137 -25 249 -110 311 -237
37 -75 38 -78 38 -192 0 -114 -1 -117 -38 -192 -64 -130 -176 -213 -320 -238
-210 -37 -427 105 -481 315 -54 205 42 419 228 506 99 46 165 56 262 38z"/>
</g>
</svg>
